<?xml version="1.0" standalone="no"?>
<!DOCTYPE svg PUBLIC "-//W3C//DTD SVG 20010904//EN"
 "http://www.w3.org/TR/2001/REC-SVG-20010904/DTD/svg10.dtd">
<svg version="1.0" xmlns="http://www.w3.org/2000/svg"
 width="500.000000pt" height="500.000000pt" viewBox="0 0 500.000000 500.000000"
 preserveAspectRatio="xMidYMid meet">
<metadata>
Created by potrace 1.14, written by Peter Selinger 2001-2017
</metadata>
<g transform="translate(0.000000,500.000000) scale(0.100000,-0.100000)"
fill="#000000" stroke="none">
<path d="M0 2500 l0 -2500 2500 0 2500 0 0 2500 0 2500 -2500 0 -2500 0 0
-2500z m1999 1279 c281 -47 509 -240 600 -509 38 -110 45 -157 46 -280 0 -161
-19 -255 -78 -380 -30 -63 -78 -142 -103 -167 -7 -7 -21 -23 -31 -36 -63 -78
-219 -170 -352 -206 -89 -25 -364 -41 -375 -23 -4 6 2 15 12 21 25 13 107 99
136 141 24 37 74 131 100 191 8 20 28 83 42 140 25 96 28 120 28 304 0 175 -3
212 -23 299 -25 106 -59 196 -109 288 -39 71 -53 89 -124 160 -32 31 -58 59
-58 62 0 10 221 6 289 -5z m-811 -1271 l2 -1268 -220 0 -220 0 0 1270 0 1270
218 -2 217 -3 3 -1267z m3062 1259 c0 -8 -46 -54 -102 -103 -100 -86 -339
-315 -441 -421 -28 -29 -54 -53 -57 -53 -8 0 -15 18 -50 125 -29 89 -49 129
-116 231 -51 78 -155 185 -201 207 -13 5 -23 14 -23 19 0 4 223 8 495 8 407 0
495 -2 495 -13z m-894 -1038 c17 -24 103 -143 190 -264 88 -121 171 -236 184
-255 14 -19 27 -37 30 -40 5 -4 116 -157 178 -243 25 -37 54 -77 114 -162 54
-75 101 -138 109 -145 3 -3 24 -33 47 -67 l42 -62 0 -125 0 -126 -239 0 -239
0 -59 81 c-32 44 -80 111 -108 149 -27 38 -75 104 -105 146 -71 99 -177 246
-256 354 -23 30 -62 84 -87 120 -92 128 -177 245 -184 255 -5 6 -19 25 -32 43
l-23 32 94 89 c51 49 107 100 123 113 17 14 61 55 99 92 39 37 74 65 80 63 6
-2 24 -23 42 -48z"/>
</g>
</svg>
